# Tiled2Unity generated file. Do not modify by hand.
# Wavefront file for 'TutorialMap_mesh_0002.obj'

# Vertices (Count = 508)
v -546 -14 0
v -560 -14 0
v -560 0 0
v -546 0 0
v -546 -28 0
v -560 -28 0
v -560 -14 0
v -546 -14 0
v -546 -42 0
v -560 -42 0
v -560 -28 0
v -546 -28 0
v -546 -56 0
v -560 -56 0
v -560 -42 0
v -546 -42 0
v -546 -70 0
v -560 -70 0
v -560 -56 0
v -546 -56 0
v -546 -84 0
v -560 -84 0
v -560 -70 0
v -546 -70 0
v -546 -98 0
v -560 -98 0
v -560 -84 0
v -546 -84 0
v -546 -112 0
v -560 -112 0
v -560 -98 0
v -546 -98 0
v -266 -112 0
v -280 -112 0
v -280 -98 0
v -266 -98 0
v -252 -112 0
v -266 -112 0
v -266 -98 0
v -252 -98 0
v -238 -112 0
v -252 -112 0
v -252 -98 0
v -238 -98 0
v -224 -112 0
v -238 -112 0
v -238 -98 0
v -224 -98 0
v -210 -112 0
v -224 -112 0
v -224 -98 0
v -210 -98 0
v -196 -112 0
v -210 -112 0
v -210 -98 0
v -196 -98 0
v -182 -112 0
v -196 -112 0
v -196 -98 0
v -182 -98 0
v -168 -112 0
v -182 -112 0
v -182 -98 0
v -168 -98 0
v -154 -112 0
v -168 -112 0
v -168 -98 0
v -154 -98 0
v -140 -112 0
v -154 -112 0
v -154 -98 0
v -140 -98 0
v -266 -126 0
v -280 -126 0
v -280 -112 0
v -266 -112 0
v -252 -126 0
v -266 -126 0
v -266 -112 0
v -252 -112 0
v -238 -126 0
v -252 -126 0
v -252 -112 0
v -238 -112 0
v -224 -126 0
v -238 -126 0
v -238 -112 0
v -224 -112 0
v -210 -126 0
v -224 -126 0
v -224 -112 0
v -210 -112 0
v -196 -126 0
v -210 -126 0
v -210 -112 0
v -196 -112 0
v -182 -126 0
v -196 -126 0
v -196 -112 0
v -182 -112 0
v -168 -126 0
v -182 -126 0
v -182 -112 0
v -168 -112 0
v -154 -126 0
v -168 -126 0
v -168 -112 0
v -154 -112 0
v -140 -126 0
v -154 -126 0
v -154 -112 0
v -140 -112 0
v -546 -140 0
v -560 -140 0
v -560 -126 0
v -546 -126 0
v -532 -140 0
v -546 -140 0
v -546 -126 0
v -532 -126 0
v -518 -140 0
v -532 -140 0
v -532 -126 0
v -518 -126 0
v -504 -140 0
v -518 -140 0
v -518 -126 0
v -504 -126 0
v -490 -140 0
v -504 -140 0
v -504 -126 0
v -490 -126 0
v -476 -140 0
v -490 -140 0
v -490 -126 0
v -476 -126 0
v -462 -140 0
v -476 -140 0
v -476 -126 0
v -462 -126 0
v -448 -140 0
v -462 -140 0
v -462 -126 0
v -448 -126 0
v -434 -140 0
v -448 -140 0
v -448 -126 0
v -434 -126 0
v -266 -140 0
v -280 -140 0
v -280 -126 0
v -266 -126 0
v -252 -140 0
v -266 -140 0
v -266 -126 0
v -252 -126 0
v -154 -140 0
v -168 -140 0
v -168 -126 0
v -154 -126 0
v -140 -140 0
v -154 -140 0
v -154 -126 0
v -140 -126 0
v -546 -154 0
v -560 -154 0
v -560 -140 0
v -546 -140 0
v -532 -154 0
v -546 -154 0
v -546 -140 0
v -532 -140 0
v -518 -154 0
v -532 -154 0
v -532 -140 0
v -518 -140 0
v -504 -154 0
v -518 -154 0
v -518 -140 0
v -504 -140 0
v -490 -154 0
v -504 -154 0
v -504 -140 0
v -490 -140 0
v -476 -154 0
v -490 -154 0
v -490 -140 0
v -476 -140 0
v -462 -154 0
v -476 -154 0
v -476 -140 0
v -462 -140 0
v -448 -154 0
v -462 -154 0
v -462 -140 0
v -448 -140 0
v -434 -154 0
v -448 -154 0
v -448 -140 0
v -434 -140 0
v -266 -154 0
v -280 -154 0
v -280 -140 0
v -266 -140 0
v -252 -154 0
v -266 -154 0
v -266 -140 0
v -252 -140 0
v -154 -154 0
v -168 -154 0
v -168 -140 0
v -154 -140 0
v -140 -154 0
v -154 -154 0
v -154 -140 0
v -140 -140 0
v -126 -154 0
v -140 -154 0
v -140 -140 0
v -126 -140 0
v -112 -154 0
v -126 -154 0
v -126 -140 0
v -112 -140 0
v -98 -154 0
v -112 -154 0
v -112 -140 0
v -98 -140 0
v -84 -154 0
v -98 -154 0
v -98 -140 0
v -84 -140 0
v -70 -154 0
v -84 -154 0
v -84 -140 0
v -70 -140 0
v -56 -154 0
v -70 -154 0
v -70 -140 0
v -56 -140 0
v -42 -154 0
v -56 -154 0
v -56 -140 0
v -42 -140 0
v -28 -154 0
v -42 -154 0
v -42 -140 0
v -28 -140 0
v -14 -154 0
v -28 -154 0
v -28 -140 0
v -14 -140 0
v 0 -154 0
v -14 -154 0
v -14 -140 0
v 0 -140 0
v -546 -168 0
v -560 -168 0
v -560 -154 0
v -546 -154 0
v -448 -168 0
v -462 -168 0
v -462 -154 0
v -448 -154 0
v -434 -168 0
v -448 -168 0
v -448 -154 0
v -434 -154 0
v -266 -168 0
v -280 -168 0
v -280 -154 0
v -266 -154 0
v -252 -168 0
v -266 -168 0
v -266 -154 0
v -252 -154 0
v -154 -168 0
v -168 -168 0
v -168 -154 0
v -154 -154 0
v -140 -168 0
v -154 -168 0
v -154 -154 0
v -140 -154 0
v -126 -168 0
v -140 -168 0
v -140 -154 0
v -126 -154 0
v -112 -168 0
v -126 -168 0
v -126 -154 0
v -112 -154 0
v -98 -168 0
v -112 -168 0
v -112 -154 0
v -98 -154 0
v -84 -168 0
v -98 -168 0
v -98 -154 0
v -84 -154 0
v -70 -168 0
v -84 -168 0
v -84 -154 0
v -70 -154 0
v -56 -168 0
v -70 -168 0
v -70 -154 0
v -56 -154 0
v -42 -168 0
v -56 -168 0
v -56 -154 0
v -42 -154 0
v -28 -168 0
v -42 -168 0
v -42 -154 0
v -28 -154 0
v -14 -168 0
v -28 -168 0
v -28 -154 0
v -14 -154 0
v 0 -168 0
v -14 -168 0
v -14 -154 0
v 0 -154 0
v -546 -182 0
v -560 -182 0
v -560 -168 0
v -546 -168 0
v -448 -182 0
v -462 -182 0
v -462 -168 0
v -448 -168 0
v -434 -182 0
v -448 -182 0
v -448 -168 0
v -434 -168 0
v -266 -182 0
v -280 -182 0
v -280 -168 0
v -266 -168 0
v -252 -182 0
v -266 -182 0
v -266 -168 0
v -252 -168 0
v -546 -196 0
v -560 -196 0
v -560 -182 0
v -546 -182 0
v -448 -196 0
v -462 -196 0
v -462 -182 0
v -448 -182 0
v -434 -196 0
v -448 -196 0
v -448 -182 0
v -434 -182 0
v -266 -196 0
v -280 -196 0
v -280 -182 0
v -266 -182 0
v -252 -196 0
v -266 -196 0
v -266 -182 0
v -252 -182 0
v -546 -210 0
v -560 -210 0
v -560 -196 0
v -546 -196 0
v -448 -210 0
v -462 -210 0
v -462 -196 0
v -448 -196 0
v -434 -210 0
v -448 -210 0
v -448 -196 0
v -434 -196 0
v -420 -210 0
v -434 -210 0
v -434 -196 0
v -420 -196 0
v -406 -210 0
v -420 -210 0
v -420 -196 0
v -406 -196 0
v -392 -210 0
v -406 -210 0
v -406 -196 0
v -392 -196 0
v -378 -210 0
v -392 -210 0
v -392 -196 0
v -378 -196 0
v -364 -210 0
v -378 -210 0
v -378 -196 0
v -364 -196 0
v -350 -210 0
v -364 -210 0
v -364 -196 0
v -350 -196 0
v -336 -210 0
v -350 -210 0
v -350 -196 0
v -336 -196 0
v -322 -210 0
v -336 -210 0
v -336 -196 0
v -322 -196 0
v -308 -210 0
v -322 -210 0
v -322 -196 0
v -308 -196 0
v -294 -210 0
v -308 -210 0
v -308 -196 0
v -294 -196 0
v -280 -210 0
v -294 -210 0
v -294 -196 0
v -280 -196 0
v -266 -210 0
v -280 -210 0
v -280 -196 0
v -266 -196 0
v -252 -210 0
v -266 -210 0
v -266 -196 0
v -252 -196 0
v -546 -224 0
v -560 -224 0
v -560 -210 0
v -546 -210 0
v -448 -224 0
v -462 -224 0
v -462 -210 0
v -448 -210 0
v -434 -224 0
v -448 -224 0
v -448 -210 0
v -434 -210 0
v -420 -224 0
v -434 -224 0
v -434 -210 0
v -420 -210 0
v -406 -224 0
v -420 -224 0
v -420 -210 0
v -406 -210 0
v -392 -224 0
v -406 -224 0
v -406 -210 0
v -392 -210 0
v -378 -224 0
v -392 -224 0
v -392 -210 0
v -378 -210 0
v -364 -224 0
v -378 -224 0
v -378 -210 0
v -364 -210 0
v -350 -224 0
v -364 -224 0
v -364 -210 0
v -350 -210 0
v -336 -224 0
v -350 -224 0
v -350 -210 0
v -336 -210 0
v -322 -224 0
v -336 -224 0
v -336 -210 0
v -322 -210 0
v -308 -224 0
v -322 -224 0
v -322 -210 0
v -308 -210 0
v -294 -224 0
v -308 -224 0
v -308 -210 0
v -294 -210 0
v -280 -224 0
v -294 -224 0
v -294 -210 0
v -280 -210 0
v -266 -224 0
v -280 -224 0
v -280 -210 0
v -266 -210 0
v -252 -224 0
v -266 -224 0
v -266 -210 0
v -252 -210 0
v -546 -238 0
v -560 -238 0
v -560 -224 0
v -546 -224 0
v -546 -252 0
v -560 -252 0
v -560 -238 0
v -546 -238 0
v -546 -266 0
v -560 -266 0
v -560 -252 0
v -546 -252 0
v -546 -280 0
v -560 -280 0
v -560 -266 0
v -546 -266 0

# Texture cooridinates (Count = 60)
vt 0.5454546 0.486692
vt 0.5599173 0.486692
vt 0.5599173 0.513308
vt 0.5454546 0.513308
vt 0.4927686 0.486692
vt 0.5072314 0.486692
vt 0.5072314 0.513308
vt 0.4927686 0.513308
vt 0.1590909 0.6806084
vt 0.1735537 0.6806084
vt 0.1735537 0.7072244
vt 0.1590909 0.7072244
vt 0.1415289 0.6806084
vt 0.1559917 0.6806084
vt 0.1559917 0.7072244
vt 0.1415289 0.7072244
vt 0.1239669 0.6806084
vt 0.1384297 0.6806084
vt 0.1384297 0.7072244
vt 0.1239669 0.7072244
vt 0.1590909 0.648289
vt 0.1735537 0.648289
vt 0.1735537 0.6749049
vt 0.1590909 0.6749049
vt 0.106405 0.6806084
vt 0.1208678 0.6806084
vt 0.1208678 0.7072244
vt 0.106405 0.7072244
vt 0.1415289 0.6159695
vt 0.1559917 0.6159695
vt 0.1559917 0.6425855
vt 0.1415289 0.6425855
vt 0.08884297 0.6806084
vt 0.1033058 0.6806084
vt 0.1033058 0.7072244
vt 0.08884297 0.7072244
vt 0.1239669 0.648289
vt 0.1384297 0.648289
vt 0.1384297 0.6749049
vt 0.1239669 0.6749049
vt 0.106405 0.648289
vt 0.1208678 0.648289
vt 0.1208678 0.6749049
vt 0.106405 0.6749049
vt 0.1590909 0.6159695
vt 0.1735537 0.6159695
vt 0.1735537 0.6425855
vt 0.1590909 0.6425855
vt 0.4225207 0.486692
vt 0.4369835 0.486692
vt 0.4369835 0.513308
vt 0.4225207 0.513308
vt 0.08884297 0.648289
vt 0.1033058 0.648289
vt 0.1033058 0.6749049
vt 0.08884297 0.6749049
vt 0.1239669 0.6159695
vt 0.1384297 0.6159695
vt 0.1384297 0.6425855
vt 0.1239669 0.6425855

# Normal
vn 0 0 -1

# Mesh description
g TutorialMap_mesh_0002

# Faces
f 1/1/1 2/2/1 3/3/1 4/4/1
f 5/1/1 6/2/1 7/3/1 8/4/1
f 9/1/1 10/2/1 11/3/1 12/4/1
f 13/1/1 14/2/1 15/3/1 16/4/1
f 17/1/1 18/2/1 19/3/1 20/4/1
f 21/1/1 22/2/1 23/3/1 24/4/1
f 25/1/1 26/2/1 27/3/1 28/4/1
f 29/5/1 30/6/1 31/7/1 32/8/1
f 33/9/1 34/10/1 35/11/1 36/12/1
f 37/13/1 38/14/1 39/15/1 40/16/1
f 41/13/1 42/14/1 43/15/1 44/16/1
f 45/13/1 46/14/1 47/15/1 48/16/1
f 49/13/1 50/14/1 51/15/1 52/16/1
f 53/13/1 54/14/1 55/15/1 56/16/1
f 57/13/1 58/14/1 59/15/1 60/16/1
f 61/13/1 62/14/1 63/15/1 64/16/1
f 65/13/1 66/14/1 67/15/1 68/16/1
f 69/17/1 70/18/1 71/19/1 72/20/1
f 73/21/1 74/22/1 75/23/1 76/24/1
f 77/25/1 78/26/1 79/27/1 80/28/1
f 81/29/1 82/30/1 83/31/1 84/32/1
f 85/29/1 86/30/1 87/31/1 88/32/1
f 89/29/1 90/30/1 91/31/1 92/32/1
f 93/29/1 94/30/1 95/31/1 96/32/1
f 97/29/1 98/30/1 99/31/1 100/32/1
f 101/29/1 102/30/1 103/31/1 104/32/1
f 105/33/1 106/34/1 107/35/1 108/36/1
f 109/37/1 110/38/1 111/39/1 112/40/1
f 113/13/1 114/14/1 115/15/1 116/16/1
f 117/13/1 118/14/1 119/15/1 120/16/1
f 121/13/1 122/14/1 123/15/1 124/16/1
f 125/13/1 126/14/1 127/15/1 128/16/1
f 129/13/1 130/14/1 131/15/1 132/16/1
f 133/13/1 134/14/1 135/15/1 136/16/1
f 137/13/1 138/14/1 139/15/1 140/16/1
f 141/13/1 142/14/1 143/15/1 144/16/1
f 145/17/1 146/18/1 147/19/1 148/20/1
f 149/21/1 150/22/1 151/23/1 152/24/1
f 153/37/1 154/38/1 155/39/1 156/40/1
f 157/21/1 158/22/1 159/23/1 160/24/1
f 161/37/1 162/38/1 163/39/1 164/40/1
f 165/29/1 166/30/1 167/31/1 168/32/1
f 169/29/1 170/30/1 171/31/1 172/32/1
f 173/29/1 174/30/1 175/31/1 176/32/1
f 177/29/1 178/30/1 179/31/1 180/32/1
f 181/29/1 182/30/1 183/31/1 184/32/1
f 185/29/1 186/30/1 187/31/1 188/32/1
f 189/29/1 190/30/1 191/31/1 192/32/1
f 193/33/1 194/34/1 195/35/1 196/36/1
f 197/37/1 198/38/1 199/39/1 200/40/1
f 201/21/1 202/22/1 203/23/1 204/24/1
f 205/37/1 206/38/1 207/39/1 208/40/1
f 209/21/1 210/22/1 211/23/1 212/24/1
f 213/41/1 214/42/1 215/43/1 216/44/1
f 217/13/1 218/14/1 219/15/1 220/16/1
f 221/13/1 222/14/1 223/15/1 224/16/1
f 225/13/1 226/14/1 227/15/1 228/16/1
f 229/13/1 230/14/1 231/15/1 232/16/1
f 233/13/1 234/14/1 235/15/1 236/16/1
f 237/13/1 238/14/1 239/15/1 240/16/1
f 241/13/1 242/14/1 243/15/1 244/16/1
f 245/13/1 246/14/1 247/15/1 248/16/1
f 249/13/1 250/14/1 251/15/1 252/16/1
f 253/13/1 254/14/1 255/15/1 256/16/1
f 257/1/1 258/2/1 259/3/1 260/4/1
f 261/21/1 262/22/1 263/23/1 264/24/1
f 265/37/1 266/38/1 267/39/1 268/40/1
f 269/21/1 270/22/1 271/23/1 272/24/1
f 273/37/1 274/38/1 275/39/1 276/40/1
f 277/45/1 278/46/1 279/47/1 280/48/1
f 281/29/1 282/30/1 283/31/1 284/32/1
f 285/29/1 286/30/1 287/31/1 288/32/1
f 289/29/1 290/30/1 291/31/1 292/32/1
f 293/29/1 294/30/1 295/31/1 296/32/1
f 297/29/1 298/30/1 299/31/1 300/32/1
f 301/29/1 302/30/1 303/31/1 304/32/1
f 305/29/1 306/30/1 307/31/1 308/32/1
f 309/29/1 310/30/1 311/31/1 312/32/1
f 313/29/1 314/30/1 315/31/1 316/32/1
f 317/29/1 318/30/1 319/31/1 320/32/1
f 321/29/1 322/30/1 323/31/1 324/32/1
f 325/49/1 326/50/1 327/51/1 328/52/1
f 329/21/1 330/22/1 331/23/1 332/24/1
f 333/37/1 334/38/1 335/39/1 336/40/1
f 337/21/1 338/22/1 339/23/1 340/24/1
f 341/37/1 342/38/1 343/39/1 344/40/1
f 345/49/1 346/50/1 347/51/1 348/52/1
f 349/21/1 350/22/1 351/23/1 352/24/1
f 353/37/1 354/38/1 355/39/1 356/40/1
f 357/21/1 358/22/1 359/23/1 360/24/1
f 361/37/1 362/38/1 363/39/1 364/40/1
f 365/49/1 366/50/1 367/51/1 368/52/1
f 369/21/1 370/22/1 371/23/1 372/24/1
f 373/41/1 374/42/1 375/43/1 376/44/1
f 377/13/1 378/14/1 379/15/1 380/16/1
f 381/13/1 382/14/1 383/15/1 384/16/1
f 385/13/1 386/14/1 387/15/1 388/16/1
f 389/13/1 390/14/1 391/15/1 392/16/1
f 393/13/1 394/14/1 395/15/1 396/16/1
f 397/13/1 398/14/1 399/15/1 400/16/1
f 401/13/1 402/14/1 403/15/1 404/16/1
f 405/13/1 406/14/1 407/15/1 408/16/1
f 409/13/1 410/14/1 411/15/1 412/16/1
f 413/13/1 414/14/1 415/15/1 416/16/1
f 417/13/1 418/14/1 419/15/1 420/16/1
f 421/53/1 422/54/1 423/55/1 424/56/1
f 425/37/1 426/38/1 427/39/1 428/40/1
f 429/49/1 430/50/1 431/51/1 432/52/1
f 433/45/1 434/46/1 435/47/1 436/48/1
f 437/29/1 438/30/1 439/31/1 440/32/1
f 441/29/1 442/30/1 443/31/1 444/32/1
f 445/29/1 446/30/1 447/31/1 448/32/1
f 449/29/1 450/30/1 451/31/1 452/32/1
f 453/29/1 454/30/1 455/31/1 456/32/1
f 457/29/1 458/30/1 459/31/1 460/32/1
f 461/29/1 462/30/1 463/31/1 464/32/1
f 465/29/1 466/30/1 467/31/1 468/32/1
f 469/29/1 470/30/1 471/31/1 472/32/1
f 473/29/1 474/30/1 475/31/1 476/32/1
f 477/29/1 478/30/1 479/31/1 480/32/1
f 481/29/1 482/30/1 483/31/1 484/32/1
f 485/29/1 486/30/1 487/31/1 488/32/1
f 489/57/1 490/58/1 491/59/1 492/60/1
f 493/49/1 494/50/1 495/51/1 496/52/1
f 497/49/1 498/50/1 499/51/1 500/52/1
f 501/49/1 502/50/1 503/51/1 504/52/1
f 505/49/1 506/50/1 507/51/1 508/52/1

